<?xml version="1.0" ?><svg viewBox="0 0 64 64" xmlns="http://www.w3.org/2000/svg"><defs><style>.cls-1{fill:#00463A;}}</style></defs><title/><g data-name="Layer 3" id="Layer_3"><rect class="cls-1" height="64" width="64"/></g><g data-name="Design Convert" id="Design_Convert"><path class="cls-2" d="M52,57H12a1,1,0,0,1-1-1V51.61a7,7,0,0,1,2.23-5.12L28.1,32.65a1,1,0,0,0,0-1.34L13.23,17.51A7,7,0,0,1,11,12.39V8a1,1,0,0,1,1-1H52a1,1,0,0,1,1,1v4.39a7,7,0,0,1-2.23,5.12L35.9,31.35a1,1,0,0,0,0,1.34l14.83,13.8A7,7,0,0,1,53,51.61V56A1,1,0,0,1,52,57ZM13,55H51V51.61A5,5,0,0,0,49.41,48L34.54,34.11a3,3,0,0,1,0-4.18L49.41,16.05h0A5,5,0,0,0,51,12.39V9H13v3.39a5,5,0,0,0,1.59,3.66L29.46,29.89a3,3,0,0,1,0,4.18L14.59,48A5,5,0,0,0,13,51.61Z"/></g></svg>